<svg width="20" height="21" fill="none" xmlns="http://www.w3.org/2000/svg"><path d="M10 0C4.486 0 0 4.524 0 10.084s4.486 10.083 10 10.083 10-4.524 10-10.083C20 4.524 15.514 0 10 0Zm4.461 7.776c.005.1.007.2.007.301 0 3.067-2.315 6.603-6.55 6.603-1.3 0-2.51-.384-3.527-1.042a4.609 4.609 0 0 0 3.407-.961 2.306 2.306 0 0 1-2.15-1.612 2.302 2.302 0 0 0 1.04-.04A2.316 2.316 0 0 1 4.84 8.75v-.03c.31.174.666.279 1.043.29A2.324 2.324 0 0 1 4.86 7.08c0-.426.113-.825.312-1.168a6.518 6.518 0 0 0 4.743 2.425c-.04-.17-.059-.346-.059-.529 0-1.281 1.03-2.32 2.301-2.32.663 0 1.26.281 1.68.732a4.571 4.571 0 0 0 1.463-.563 2.328 2.328 0 0 1-1.014 1.284c.466-.056.911-.18 1.322-.365a4.65 4.65 0 0 1-1.147 1.2Z" fill="#000"/></svg>